<svg width="56" height="68" viewBox="0 0 56 68" fill="none" xmlns="http://www.w3.org/2000/svg">
<path d="M29.4142 13.5858C30.1953 14.3668 30.1953 15.6332 29.4142 16.4142L16.6863 29.1421C15.9052 29.9232 14.6389 29.9232 13.8579 29.1421C13.0768 28.3611 13.0768 27.0948 13.8579 26.3137L25.1716 15L13.8579 3.68629C13.0768 2.90524 13.0768 1.63892 13.8579 0.857864C14.6389 0.0768127 15.9052 0.0768127 16.6863 0.857864L29.4142 13.5858ZM52 39.9938C52 38.8892 52.8954 37.9938 54 37.9938C55.1046 37.9938 56 38.8892 56 39.9938H52ZM28 17C20.0767 17 14.1049 20.6366 10.0704 25.3764C5.98499 30.1761 4 35.977 4 39.9938H0C0 34.8989 2.41161 28.203 7.02446 22.7837C11.6883 17.3045 18.7165 13 28 13V17ZM4 39.9938C4 44.0678 5.83627 50.1371 9.8296 55.1708C13.7701 60.1379 19.7258 64 28 64V68C18.3083 68 11.264 63.4149 6.69594 57.6568C2.18076 51.9653 0 45.0315 0 39.9938H4ZM28 64C36.3399 64 42.2881 60.4438 46.1916 55.6903C50.1433 50.878 52 44.8283 52 39.9938H56C56 45.7262 53.8396 52.6797 49.2829 58.2288C44.6779 63.8366 37.6261 68 28 68V64Z" fill="#8BC4AE"/>
</svg>
