<svg id="Layer_1" data-name="Layer 1" xmlns="http://www.w3.org/2000/svg" viewBox="0 0 1143.44 907.58"><defs><style>.cls-1{fill:#325f58;}.cls-2{fill:#e3ebb2;}.cls-3{fill:#ffbaf4;}.cls-4{fill:#4d4d4d;}.cls-5{fill:#8bc491;}</style></defs><path class="cls-1" d="M992.3,371.86c-.06-.25-.12-.5-.19-.75C945.9,181.4,774.86,40.58,570.92,40.58S196.18,181.2,149.82,370.72A435.91,435.91,0,0,0,164.6,625.47C226,790.24,384.75,907.58,570.92,907.58c186.77,0,346-118.11,406.91-283.72.4-1.06.79-2.12,1.17-3.19a436.09,436.09,0,0,0,13.3-248.81ZM907.56,729.42a424.29,424.29,0,0,1-91,88.49,422.54,422.54,0,1,1-410-733.13A422.75,422.75,0,0,1,981.61,374.44a421.92,421.92,0,0,1-74.05,355Z"/><path class="cls-2" d="M976.92,474.08a404.9,404.9,0,0,1-23.81,137.29C896.83,768,747,880.08,570.92,880.08c-224.23,0-406-181.77-406-406s181.77-406,406-406c191.26,0,351.61,132.23,394.65,310.26A407.09,407.09,0,0,1,976.92,474.08Z"/><path d="M471,263.19s88.36,154.61,10.52,245.07S251.15,495.64,291.12,417.8,390,178,471,263.19Z"/><path class="cls-3" d="M343.71,405.18S356.33,462,396.3,462s57.85-26.3,58.9-50.49C455.2,411.49,386.83,431.48,343.71,405.18Zm30,12a67.06,67.06,0,0,0,29.4,6.4,69,69,0,0,0,25.69-4.75,19.26,19.26,0,0,1,.6,4.75c0,.38,0,.75,0,1.12-15.9,2.16-36.59,3.28-56.74-.55a5.43,5.43,0,0,1,0-.57A18.85,18.85,0,0,1,373.74,417.19Z"/><path class="cls-4" d="M460.07,405.29a7.89,7.89,0,0,0-7.09-1.37c-.64.19-65.47,18.72-105.17-5.47A7.88,7.88,0,0,0,336,406.9c.57,2.56,14.51,63,60.29,63,20.37,0,37.53-6.4,49.62-18.48a59.37,59.37,0,0,0,17.16-39.55A7.87,7.87,0,0,0,460.07,405.29Zm-63.77,48.8c-20.54,0-32.83-19.28-39.22-34a111.58,111.58,0,0,0,15.57,4.11,5.43,5.43,0,0,1,0-.57,18.85,18.85,0,0,1,1.11-6.4,67.06,67.06,0,0,0,29.4,6.4,69,69,0,0,0,25.69-4.75,19.26,19.26,0,0,1,.6,4.75c0,.38,0,.75,0,1.12,6.23-.84,11.73-1.85,16.16-2.77C440.78,438.48,426.1,454.09,396.3,454.09Z"/><path class="cls-4" d="M429.43,423.59c0,.38,0,.75,0,1.12-15.9,2.16-36.59,3.28-56.74-.55a5.43,5.43,0,0,1,0-.57,18.85,18.85,0,0,1,1.11-6.4,67.06,67.06,0,0,0,29.4,6.4,69,69,0,0,0,25.69-4.75A19.26,19.26,0,0,1,429.43,423.59Z"/><path d="M429.39,424.71c-.72,12.26-13.14,22-28.36,22-15.45,0-28-10.06-28.38-22.57C392.8,428,413.49,426.87,429.39,424.71Z"/><path d="M666.87,263.19S578.51,417.8,656.35,508.26s230.34-12.62,190.37-90.46S747.85,178,666.87,263.19Z"/><path class="cls-3" d="M682.64,411.49c1.05,24.19,18.93,50.49,58.9,50.49s52.59-56.8,52.59-56.8C751,431.48,682.64,411.49,682.64,411.49ZM709,418.84a69,69,0,0,0,25.69,4.75,67.06,67.06,0,0,0,29.4-6.4,18.85,18.85,0,0,1,1.11,6.4,5.43,5.43,0,0,1,0,.57c-20.15,3.83-40.84,2.71-56.74.55,0-.37,0-.74,0-1.12A19.26,19.26,0,0,1,709,418.84Z"/><path class="cls-4" d="M798.73,398.76a7.89,7.89,0,0,0-8.7-.31c-39.7,24.19-104.53,5.66-105.17,5.47a7.89,7.89,0,0,0-10.1,7.92,59.37,59.37,0,0,0,17.16,39.55c12.09,12.08,29.25,18.48,49.62,18.48,45.78,0,59.72-60.41,60.29-63A7.92,7.92,0,0,0,798.73,398.76Zm-57.19,55.33c-29.8,0-44.48-15.61-49.25-32.15,4.43.92,9.93,1.93,16.16,2.77,0-.37,0-.74,0-1.12a19.26,19.26,0,0,1,.6-4.75,69,69,0,0,0,25.69,4.75,67.06,67.06,0,0,0,29.4-6.4,18.85,18.85,0,0,1,1.11,6.4,5.43,5.43,0,0,1,0,.57,111.58,111.58,0,0,0,15.57-4.11C774.37,434.81,762.08,454.09,741.54,454.09Z"/><path class="cls-4" d="M708.41,423.59c0,.38,0,.75,0,1.12,15.9,2.16,36.59,3.28,56.74-.55a5.43,5.43,0,0,0,0-.57,18.85,18.85,0,0,0-1.11-6.4,67.06,67.06,0,0,1-29.4,6.4A69,69,0,0,1,709,418.84,19.26,19.26,0,0,0,708.41,423.59Z"/><path d="M708.45,424.71c.72,12.26,13.14,22,28.36,22,15.45,0,28-10.06,28.38-22.57C745,428,724.35,426.87,708.45,424.71Z"/><path d="M582.71,562.36q-7.92.35-15.85,0c-31.76-1.44-96,1.17-95.29,45.81,1,59.27,47.41,32.6,57.29,24.7s26.67-21.73,22.72,6.91c-3,21.61,8.09,25.23,19.22,24.86,2.66-.09,5.31-.09,8,0,11.13.37,22.2-3.25,19.22-24.86-4-28.64,12.84-14.81,22.72-6.91S677,667.44,678,608.17C678.75,563.53,614.47,560.92,582.71,562.36Z"/><path d="M696.59,769.36c-16.63,0-40-7.49-69.65-22.4a572.21,572.21,0,0,1-53.82-31.12l-2.37-1.58-1.93-69.5a5.5,5.5,0,0,1,11-.31l1.77,63.8c28.31,18.55,99.44,59.29,125.3,48.4,32.33-13.61,41.36-35.6,41.45-35.82a5.5,5.5,0,0,1,10.25,4c-.41,1.07-10.52,26.44-47.43,42A37.58,37.58,0,0,1,696.59,769.36Z"/><path d="M459.05,779.25a5.5,5.5,0,0,1-.29-11c49.31-2.64,113.06-60.47,113.7-61a5.5,5.5,0,1,1,7.42,8.11c-2.72,2.49-67.33,61.08-120.53,63.93Z"/><path class="cls-1" d="M167.44,620.67c-.88,1.63-1.83,3.24-2.84,4.8-9.84,15.21-25.88,26.62-52,25.2C65.5,530,96.15,413.25,113.65,364a268.43,268.43,0,0,1,36.17,6.69c1.61.41,3.06.79,4.32,1.14a436.09,436.09,0,0,0,13.3,248.81Z"/><path class="cls-5" d="M1049,362.79l9.32.13-3.5-12.16c-.52-3.53-13.45-87.64-78.8-173.5C937.62,126.84,889.06,86.41,831.68,57.1,760.34,20.66,675.19,1.48,578.6.08c-3.5,0-7-.08-10.51-.08-92.4,0-174.82,17.83-245,53a431.47,431.47,0,0,0-149,122.87C105.46,264.6,89.13,353,88.46,356.74a12,12,0,0,0-.18,1.87,4.5,4.5,0,0,0-2.55,2.66c-.19.54-.39,1.09-.58,1.65,1.25-.05,2.5-.09,3.75-.11,1.86,0,3.72-.05,5.57,0a4.5,4.5,0,0,1-.26,1.52c-.48,1.34-1,2.74-1.48,4.19C74.8,420.13,42.35,541.39,88.44,643.24a4.45,4.45,0,0,1,.2,3.16,108.36,108.36,0,0,0,23.91,4.27C65.5,530,96.15,413.25,113.65,364l-1.4-.15a12.16,12.16,0,0,0,.83-2.75c.15-.85,16.37-86.87,81.07-170.35C252.76,115.15,365.22,25,568.13,25c3.34,0,6.74,0,10.11.08C787.31,28.1,899,117.52,955.79,192c61.24,80.24,74.14,161.6,74.27,162.42l-.27,9.61m0,0c17.5,49.22,48.15,165.92,1.1,286.64a108.36,108.36,0,0,0,23.91-4.27,4.45,4.45,0,0,1,.2-3.16c47.39-104.72,11.75-229.95-5.77-278.93a4.44,4.44,0,0,1-.24-1.1,3,3,0,0,1,0-.42m-5.75-4.77a5.49,5.49,0,0,1-6.24-4.64c-.12-.82-12.92-83.46-75.63-165.63C903.58,112,790.22,21.14,578.34,18.08Q573.19,18,568.13,18c-205.46,0-319.64,91.24-379.51,168.49C122.52,271.77,106.34,359,106.19,359.9a5.44,5.44,0,0,1-2,3.29c-2.42-.16-4.88-.28-7.34-.35A5.48,5.48,0,0,1,95.36,358c.65-3.65,16.67-90.43,84.26-177.83A424.29,424.29,0,0,1,326.25,59.25C395.46,24.56,476.79,7,568.09,7q5.17,0,10.41.08C674,8.46,758.12,27.39,828.5,63.34c56.44,28.83,104.19,68.58,141.92,118.16,64.25,84.41,76.93,166.81,77.44,170.28A5.5,5.5,0,0,1,1043.22,358Z"/><path class="cls-5" d="M78.55,643.13,77,642.58c-108-40-81-214-47-257,12.56-15.89,33.6-21.68,55.13-22.66C67.28,413.44,32.85,537.39,78.55,643.13Z"/><path class="cls-2" d="M94.47,362.79a4.5,4.5,0,0,1-.26,1.52c-.48,1.34-1,2.74-1.48,4.19C74.8,420.13,42.35,541.39,88.44,643.24a4.45,4.45,0,0,1,.2,3.16l-10.09-3.27c-45.7-105.74-11.27-229.69,6.6-280.21,1.25-.05,2.5-.09,3.75-.11C90.76,362.77,92.62,362.76,94.47,362.79Z"/><path class="cls-1" d="M1030.89,650.67c-27.09,1.47-43.33-10.81-53.06-26.81-.64-1.05-1.25-2.11-1.83-3.19a436.09,436.09,0,0,0,13.3-248.81c.85-.24,1.79-.49,2.81-.75a269.59,269.59,0,0,1,37.68-7.08C1047.29,413.25,1077.94,530,1030.89,650.67Z"/><path class="cls-5" d="M1066.42,642.58l-1.53.55c45.7-105.74,11.27-229.69-6.6-280.21,21.53,1,42.57,6.77,55.13,22.66C1147.42,428.58,1174.42,602.58,1066.42,642.58Z"/><path class="cls-2" d="M1064.89,643.13c-3.48,1.26-6.84,2.34-10.09,3.27a4.45,4.45,0,0,1,.2-3.16c47.39-104.72,11.75-229.95-5.77-278.93a4.44,4.44,0,0,1-.24-1.1,3,3,0,0,1,0-.42h.67c2.87,0,5.76,0,8.65.14C1076.16,413.44,1110.59,537.39,1064.89,643.13Z"/></svg>